{
  "accessors": [
    {
      "bufferView": 2,
      "componentType": 5126,
      "count": 1105,
      "max": [
        2.0000052452087402,
        1.9999998807907104,
        0.2980857491493225
      ],
      "min": [
        -1.9999947547912598,
        -1.9999998807907104,
        0.006619930267333984
      ],
      "type": "VEC3"
    },
    {
      "bufferView": 2,
      "byteOffset": 13260,
      "componentType": 5126,
      "count": 1105,
      "max": [
        1.0,
        1.0,
        1.0
      ],
      "min": [
        -1.0,
        -1.0,
        -1.0
      ],
      "type": "VEC3"
    },
    {
      "bufferView": 1,
      "componentType": 5126,
      "count": 1105,
      "max": [
        0.8770021200180054,
        0.9904826283454895
      ],
      "min": [
        0.01732981577515602,
        0.6043166518211365
      ],
      "type": "VEC2"
    },
    {
      "bufferView": 0,
      "componentType": 5125,
      "count": 1140,
      "type": "SCALAR"
    },
    {
      "bufferView": 2,
      "byteOffset": 26520,
      "componentType": 5126,
      "count": 3837,
      "max": [
        1.4800000190734863,
        1.4800001382827759,
        2.1462717056274414
      ],
      "min": [
        -1.4800000190734863,
        -1.4800001382827759,
        0.4458962380886078
      ],
      "type": "VEC3"
    },
    {
      "bufferView": 2,
      "byteOffset": 72564,
      "componentType": 5126,
      "count": 3837,
      "max": [
        0.9263294339179993,
        0.9263299107551575,
        1.0
      ],
      "min": [
        -0.9263292551040649,
        -0.9263288378715515,
        -1.0
      ],
      "type": "VEC3"
    },
    {
      "bufferView": 1,
      "byteOffset": 8840,
      "componentType": 5126,
      "count": 3837,
      "max": [
        0.97705078125,
        0.96728515625
      ],
      "min": [
        0.0178375244140625,
        0.0194549560546875
      ],
      "type": "VEC2"
    },
    {
      "bufferView": 0,
      "byteOffset": 4560,
      "componentType": 5125,
      "count": 3840,
      "type": "SCALAR"
    },
    {
      "bufferView": 2,
      "byteOffset": 118608,
      "componentType": 5126,
      "count": 665,
      "max": [
        0.8868518471717834,
        0.861632227897644,
        3.193275213241577
      ],
      "min": [
        -0.7772841453552246,
        -1.3630989789962769,
        1.855053424835205
      ],
      "type": "VEC3"
    },
    {
      "bufferView": 2,
      "byteOffset": 126588,
      "componentType": 5126,
      "count": 665,
      "max": [
        0.9967619776725769,
        0.9990474581718445,
        0.9969077110290527
      ],
      "min": [
        -0.9976385235786438,
        -0.9982587099075317,
        -0.9228512048721313
      ],
      "type": "VEC3"
    },
    {
      "bufferView": 1,
      "byteOffset": 39536,
      "componentType": 5126,
      "count": 665,
      "max": [
        0.98046875,
        0.9774788022041321
      ],
      "min": [
        0.021484375,
        0.026985354721546173
      ],
      "type": "VEC2"
    },
    {
      "bufferView": 0,
      "byteOffset": 19920,
      "componentType": 5125,
      "count": 2346,
      "type": "SCALAR"
    },
    {
      "bufferView": 2,
      "byteOffset": 134568,
      "componentType": 5126,
      "count": 9223,
      "max": [
        1.7511553764343262,
        1.6830812692642212,
        2.790271043777466
      ],
      "min": [
        -1.6660679578781128,
        -1.684981346130371,
        0.24625682830810547
      ],
      "type": "VEC3"
    },
    {
      "bufferView": 2,
      "byteOffset": 245244,
      "componentType": 5126,
      "count": 9223,
      "max": [
        0.9998874068260193,
        0.9986515045166016,
        1.0
      ],
      "min": [
        -0.9999109506607056,
        -0.9990403652191162,
        -1.0
      ],
      "type": "VEC3"
    },
    {
      "bufferView": 1,
      "byteOffset": 44856,
      "componentType": 5126,
      "count": 9223,
      "max": [
        0.5187323093414307,
        0.6874302625656128
      ],
      "min": [
        0.0,
        0.0
      ],
      "type": "VEC2"
    },
    {
      "bufferView": 0,
      "byteOffset": 29304,
      "componentType": 5125,
      "count": 52344,
      "type": "SCALAR"
    }
  ],
  "asset": {
    "extras": {
      "author": "aarontaro (https://sketchfab.com/aarontaro)",
      "license": "CC-BY-4.0 (http://creativecommons.org/licenses/by/4.0/)",
      "source": "https://sketchfab.com/3d-models/curlys-cake-from-mouthwashing-1a3cb06c50dd40a596854b54c9725aa3",
      "title": "Curly's Cake from Mouthwashing"
    },
    "generator": "Sketchfab-16.62.0",
    "version": "2.0"
  },
  "bufferViews": [
    {
      "buffer": 0,
      "byteLength": 238680,
      "name": "floatBufferViews",
      "target": 34963
    },
    {
      "buffer": 0,
      "byteLength": 118640,
      "byteOffset": 238680,
      "byteStride": 8,
      "name": "floatBufferViews",
      "target": 34962
    },
    {
      "buffer": 0,
      "byteLength": 355920,
      "byteOffset": 357320,
      "byteStride": 12,
      "name": "floatBufferViews",
      "target": 34962
    }
  ],
  "buffers": [
    {
      "byteLength": 713240,
      "uri": "scene.bin"
    }
  ],
  "images": [
    {
      "uri": "textures/Plate_baseColor.png"
    },
    {
      "uri": "textures/Cake_baseColor.png"
    },
    {
      "uri": "textures/Candles_baseColor.png"
    }
  ],
  "materials": [
    {
      "doubleSided": true,
      "name": "Plate",
      "pbrMetallicRoughness": {
        "baseColorTexture": {
          "index": 0
        },
        "metallicFactor": 0.0,
        "roughnessFactor": 0.8211145618000169
      }
    },
    {
      "doubleSided": true,
      "name": "Cake",
      "pbrMetallicRoughness": {
        "baseColorTexture": {
          "index": 1
        },
        "metallicFactor": 0.0,
        "roughnessFactor": 0.8211145618000169
      }
    },
    {
      "doubleSided": true,
      "name": "Candles",
      "pbrMetallicRoughness": {
        "baseColorTexture": {
          "index": 2
        },
        "metallicFactor": 0.0,
        "roughnessFactor": 0.8211145618000169
      }
    },
    {
      "doubleSided": true,
      "name": "Whipped_Cream",
      "pbrMetallicRoughness": {
        "baseColorFactor": [
          0.8,
          0.8,
          0.8,
          1.0
        ],
        "metallicFactor": 0.0,
        "roughnessFactor": 0.8211145618000169
      }
    }
  ],
  "meshes": [
    {
      "name": "Plate_Plate_0",
      "primitives": [
        {
          "attributes": {
            "NORMAL": 1,
            "POSITION": 0,
            "TEXCOORD_0": 2
          },
          "indices": 3,
          "material": 0,
          "mode": 4
        }
      ]
    },
    {
      "name": "Cake_Cake_0",
      "primitives": [
        {
          "attributes": {
            "NORMAL": 5,
            "POSITION": 4,
            "TEXCOORD_0": 6
          },
          "indices": 7,
          "material": 1,
          "mode": 4
        }
      ]
    },
    {
      "name": "Cake_Candles_0",
      "primitives": [
        {
          "attributes": {
            "NORMAL": 9,
            "POSITION": 8,
            "TEXCOORD_0": 10
          },
          "indices": 11,
          "material": 2,
          "mode": 4
        }
      ]
    },
    {
      "name": "Cake_Whipped Cream_0",
      "primitives": [
        {
          "attributes": {
            "NORMAL": 13,
            "POSITION": 12,
            "TEXCOORD_0": 14
          },
          "indices": 15,
          "material": 3,
          "mode": 4
        }
      ]
    }
  ],
  "nodes": [
    {
      "children": [
        1
      ],
      "matrix": [
        1.0,
        0.0,
        0.0,
        0.0,
        0.0,
        2.220446049250313e-16,
        -1.0,
        0.0,
        0.0,
        1.0,
        2.220446049250313e-16,
        0.0,
        0.0,
        0.0,
        0.0,
        1.0
      ],
      "name": "Sketchfab_model"
    },
    {
      "children": [
        2
      ],
      "matrix": [
        0.009999999776482582,
        0.0,
        0.0,
        0.0,
        0.0,
        0.0,
        0.009999999776482582,
        0.0,
        0.0,
        -0.009999999776482582,
        0.0,
        0.0,
        0.0,
        0.0,
        0.0,
        1.0
      ],
      "name": "Cake.fbx"
    },
    {
      "children": [
        3,
        5
      ],
      "name": "RootNode"
    },
    {
      "children": [
        4
      ],
      "matrix": [
        100.0,
        0.0,
        0.0,
        0.0,
        0.0,
        -1.629206793918314e-05,
        -99.99999999999868,
        0.0,
        0.0,
        99.99999999999868,
        -1.629206793918314e-05,
        0.0,
        0.0,
        0.0,
        0.0,
        1.0
      ],
      "name": "Plate"
    },
    {
      "mesh": 0,
      "name": "Plate_Plate_0"
    },
    {
      "children": [
        6,
        7,
        8
      ],
      "matrix": [
        100.0,
        0.0,
        0.0,
        0.0,
        0.0,
        -1.629206793918314e-05,
        -99.99999999999868,
        0.0,
        0.0,
        99.99999999999868,
        -1.629206793918314e-05,
        0.0,
        0.0,
        0.0,
        0.0,
        1.0
      ],
      "name": "Cake"
    },
    {
      "mesh": 1,
      "name": "Cake_Cake_0"
    },
    {
      "mesh": 2,
      "name": "Cake_Candles_0"
    },
    {
      "mesh": 3,
      "name": "Cake_Whipped Cream_0"
    }
  ],
  "samplers": [
    {
      "magFilter": 9729,
      "minFilter": 9987,
      "wrapS": 10497,
      "wrapT": 10497
    }
  ],
  "scene": 0,
  "scenes": [
    {
      "name": "Sketchfab_Scene",
      "nodes": [
        0
      ]
    }
  ],
  "textures": [
    {
      "sampler": 0,
      "source": 0
    },
    {
      "sampler": 0,
      "source": 1
    },
    {
      "sampler": 0,
      "source": 2
    }
  ]
}
